<mxfile host="Electron" modified="2023-06-14T18:52:29.295Z" agent="Mozilla/5.0 (Windows NT 10.0; Win64; x64) AppleWebKit/537.36 (KHTML, like Gecko) draw.io/21.3.7 Chrome/112.0.5615.204 Electron/24.5.0 Safari/537.36" etag="INyUj7_NcaoISvWUew7b" version="21.3.7" type="device">
  <diagram name="Page-1" id="bfn0fZ-irHN9iNtzZczI">
    <mxGraphModel dx="1819" dy="1248" grid="1" gridSize="5" guides="1" tooltips="1" connect="1" arrows="1" fold="1" page="0" pageScale="1" pageWidth="1169" pageHeight="827" math="0" shadow="0">
      <root>
        <mxCell id="0" />
        <mxCell id="1" parent="0" />
        <mxCell id="fBMT8fSlZUNq6wW_new5-80" style="edgeStyle=orthogonalEdgeStyle;rounded=1;orthogonalLoop=1;jettySize=auto;html=1;fontSize=12;startSize=8;endSize=4;entryX=0.5;entryY=0;entryDx=0;entryDy=0;fontFamily=Iosevka;endArrow=block;endFill=1;" parent="1" source="fBMT8fSlZUNq6wW_new5-76" target="fBMT8fSlZUNq6wW_new5-29" edge="1">
          <mxGeometry relative="1" as="geometry">
            <mxPoint x="300" y="445" as="targetPoint" />
            <Array as="points">
              <mxPoint x="260" y="490" />
              <mxPoint x="260" y="85" />
              <mxPoint y="85" />
            </Array>
          </mxGeometry>
        </mxCell>
        <mxCell id="fBMT8fSlZUNq6wW_new5-73" style="edgeStyle=orthogonalEdgeStyle;rounded=1;orthogonalLoop=1;jettySize=auto;html=1;entryX=0.5;entryY=0;entryDx=0;entryDy=0;fontSize=12;startSize=8;endSize=4;fontFamily=Iosevka;endArrow=block;endFill=1;" parent="1" source="fBMT8fSlZUNq6wW_new5-58" target="fBMT8fSlZUNq6wW_new5-29" edge="1">
          <mxGeometry relative="1" as="geometry">
            <Array as="points">
              <mxPoint x="260" y="450" />
              <mxPoint x="260" y="85" />
              <mxPoint y="85" />
            </Array>
          </mxGeometry>
        </mxCell>
        <mxCell id="fBMT8fSlZUNq6wW_new5-39" style="edgeStyle=none;curved=1;rounded=0;orthogonalLoop=1;jettySize=auto;html=1;fontSize=12;startSize=8;endSize=4;fontFamily=Iosevka;endArrow=block;endFill=1;entryX=0.5;entryY=0;entryDx=0;entryDy=0;" parent="1" source="fBMT8fSlZUNq6wW_new5-2" target="fBMT8fSlZUNq6wW_new5-26" edge="1">
          <mxGeometry relative="1" as="geometry">
            <mxPoint x="30" y="-10" as="targetPoint" />
          </mxGeometry>
        </mxCell>
        <mxCell id="fBMT8fSlZUNq6wW_new5-2" value="START" style="ellipse;whiteSpace=wrap;html=1;fontSize=12;fontFamily=Iosevka;" parent="1" vertex="1">
          <mxGeometry x="-40" y="-80" width="80" height="40" as="geometry" />
        </mxCell>
        <mxCell id="fBMT8fSlZUNq6wW_new5-31" style="edgeStyle=none;curved=1;rounded=0;orthogonalLoop=1;jettySize=auto;html=1;fontSize=12;startSize=8;endSize=4;fontFamily=Iosevka;exitX=0.5;exitY=1;exitDx=0;exitDy=0;exitPerimeter=0;endArrow=block;endFill=1;" parent="1" source="fBMT8fSlZUNq6wW_new5-26" target="fBMT8fSlZUNq6wW_new5-29" edge="1">
          <mxGeometry relative="1" as="geometry" />
        </mxCell>
        <mxCell id="fBMT8fSlZUNq6wW_new5-32" value="Yes" style="edgeLabel;html=1;align=center;verticalAlign=middle;resizable=0;points=[];fontSize=14;fontFamily=Iosevka;" parent="fBMT8fSlZUNq6wW_new5-31" vertex="1" connectable="0">
          <mxGeometry x="-0.3222" y="1" relative="1" as="geometry">
            <mxPoint x="-1" y="-3" as="offset" />
          </mxGeometry>
        </mxCell>
        <mxCell id="IlMoIgSYZMp1n6M1-Ipx-1" style="edgeStyle=orthogonalEdgeStyle;rounded=1;orthogonalLoop=1;jettySize=auto;html=1;fontSize=12;startSize=8;endSize=4;endArrow=block;endFill=1;exitX=0;exitY=0.5;exitDx=0;exitDy=0;entryX=0.5;entryY=0;entryDx=0;entryDy=0;" edge="1" parent="1" source="fBMT8fSlZUNq6wW_new5-26" target="fBMT8fSlZUNq6wW_new5-26">
          <mxGeometry relative="1" as="geometry">
            <mxPoint x="-85" y="-80" as="targetPoint" />
            <mxPoint x="-200" as="sourcePoint" />
            <Array as="points">
              <mxPoint x="-110" y="30" />
              <mxPoint x="-110" y="-20" />
              <mxPoint y="-20" />
            </Array>
          </mxGeometry>
        </mxCell>
        <mxCell id="IlMoIgSYZMp1n6M1-Ipx-2" value="No" style="edgeLabel;html=1;align=center;verticalAlign=middle;resizable=0;points=[];fontSize=14;fontFamily=Iosevka;" vertex="1" connectable="0" parent="IlMoIgSYZMp1n6M1-Ipx-1">
          <mxGeometry x="-0.749" y="-1" relative="1" as="geometry">
            <mxPoint x="9" y="1" as="offset" />
          </mxGeometry>
        </mxCell>
        <mxCell id="fBMT8fSlZUNq6wW_new5-26" value="New connection?" style="rhombus;whiteSpace=wrap;html=1;fontFamily=Iosevka;fontSize=12;strokeWidth=1;rounded=1;" parent="1" vertex="1">
          <mxGeometry x="-60" width="120" height="60" as="geometry" />
        </mxCell>
        <mxCell id="fBMT8fSlZUNq6wW_new5-33" style="edgeStyle=none;curved=1;rounded=0;orthogonalLoop=1;jettySize=auto;html=1;fontSize=12;startSize=8;endSize=4;fontFamily=Iosevka;endArrow=block;endFill=1;" parent="1" source="fBMT8fSlZUNq6wW_new5-29" target="fBMT8fSlZUNq6wW_new5-30" edge="1">
          <mxGeometry relative="1" as="geometry" />
        </mxCell>
        <mxCell id="fBMT8fSlZUNq6wW_new5-34" value="Yes" style="edgeLabel;html=1;align=center;verticalAlign=middle;resizable=0;points=[];fontSize=14;fontFamily=Iosevka;" parent="fBMT8fSlZUNq6wW_new5-33" vertex="1" connectable="0">
          <mxGeometry x="-0.4056" y="1" relative="1" as="geometry">
            <mxPoint y="3" as="offset" />
          </mxGeometry>
        </mxCell>
        <mxCell id="fBMT8fSlZUNq6wW_new5-70" style="edgeStyle=orthogonalEdgeStyle;rounded=1;orthogonalLoop=1;jettySize=auto;html=1;fontSize=12;startSize=8;endSize=4;exitX=0;exitY=0.5;exitDx=0;exitDy=0;fontFamily=Iosevka;endArrow=block;endFill=1;entryX=0.5;entryY=0;entryDx=0;entryDy=0;" parent="1" source="fBMT8fSlZUNq6wW_new5-29" target="fBMT8fSlZUNq6wW_new5-26" edge="1">
          <mxGeometry relative="1" as="geometry">
            <Array as="points">
              <mxPoint x="-110" y="130" />
              <mxPoint x="-110" y="-20" />
              <mxPoint y="-20" />
            </Array>
            <mxPoint x="25" y="-30" as="targetPoint" />
          </mxGeometry>
        </mxCell>
        <mxCell id="fBMT8fSlZUNq6wW_new5-71" value="No" style="edgeLabel;html=1;align=center;verticalAlign=middle;resizable=0;points=[];fontSize=14;fontFamily=Iosevka;" parent="fBMT8fSlZUNq6wW_new5-70" vertex="1" connectable="0">
          <mxGeometry x="-0.8805" y="-1" relative="1" as="geometry">
            <mxPoint as="offset" />
          </mxGeometry>
        </mxCell>
        <mxCell id="fBMT8fSlZUNq6wW_new5-29" value="Client&lt;br&gt;connected?" style="rhombus;whiteSpace=wrap;html=1;fontFamily=Iosevka;fontSize=12;strokeWidth=1;rounded=1;" parent="1" vertex="1">
          <mxGeometry x="-60" y="100" width="120" height="60" as="geometry" />
        </mxCell>
        <mxCell id="fBMT8fSlZUNq6wW_new5-50" style="edgeStyle=none;curved=1;rounded=0;orthogonalLoop=1;jettySize=auto;html=1;fontSize=12;startSize=8;endSize=4;fontFamily=Iosevka;endArrow=block;endFill=1;" parent="1" source="fBMT8fSlZUNq6wW_new5-30" target="fBMT8fSlZUNq6wW_new5-40" edge="1">
          <mxGeometry relative="1" as="geometry" />
        </mxCell>
        <mxCell id="fBMT8fSlZUNq6wW_new5-51" value="No" style="edgeLabel;html=1;align=center;verticalAlign=middle;resizable=0;points=[];fontSize=14;fontFamily=Iosevka;" parent="fBMT8fSlZUNq6wW_new5-50" vertex="1" connectable="0">
          <mxGeometry x="-0.6333" relative="1" as="geometry">
            <mxPoint y="8" as="offset" />
          </mxGeometry>
        </mxCell>
        <mxCell id="fBMT8fSlZUNq6wW_new5-68" style="edgeStyle=orthogonalEdgeStyle;rounded=1;orthogonalLoop=1;jettySize=auto;html=1;fontSize=12;startSize=8;endSize=4;exitX=0;exitY=0.5;exitDx=0;exitDy=0;fontFamily=Iosevka;endArrow=block;endFill=1;entryX=0.5;entryY=0;entryDx=0;entryDy=0;" parent="1" source="fBMT8fSlZUNq6wW_new5-30" target="fBMT8fSlZUNq6wW_new5-26" edge="1">
          <mxGeometry relative="1" as="geometry">
            <Array as="points">
              <mxPoint x="-110" y="230" />
              <mxPoint x="-110" y="-20" />
              <mxPoint y="-20" />
            </Array>
            <mxPoint x="-20" y="-30" as="targetPoint" />
          </mxGeometry>
        </mxCell>
        <mxCell id="fBMT8fSlZUNq6wW_new5-69" value="Yes" style="edgeLabel;html=1;align=center;verticalAlign=middle;resizable=0;points=[];fontSize=14;fontFamily=Iosevka;" parent="fBMT8fSlZUNq6wW_new5-68" vertex="1" connectable="0">
          <mxGeometry x="-0.8668" y="-1" relative="1" as="geometry">
            <mxPoint x="10" y="1" as="offset" />
          </mxGeometry>
        </mxCell>
        <mxCell id="fBMT8fSlZUNq6wW_new5-30" value="Timeout&lt;br&gt;&amp;gt; 2000ms?" style="rhombus;whiteSpace=wrap;html=1;fontFamily=Iosevka;fontSize=12;strokeWidth=1;rounded=1;" parent="1" vertex="1">
          <mxGeometry x="-60" y="200" width="120" height="60" as="geometry" />
        </mxCell>
        <mxCell id="fBMT8fSlZUNq6wW_new5-88" style="edgeStyle=none;curved=1;rounded=0;orthogonalLoop=1;jettySize=auto;html=1;fontSize=12;startSize=8;endSize=4;fontFamily=Iosevka;endArrow=block;endFill=1;" parent="1" source="fBMT8fSlZUNq6wW_new5-40" target="fBMT8fSlZUNq6wW_new5-41" edge="1">
          <mxGeometry relative="1" as="geometry" />
        </mxCell>
        <mxCell id="fBMT8fSlZUNq6wW_new5-40" value="Read char &lt;b&gt;c&lt;/b&gt;" style="rounded=1;whiteSpace=wrap;html=1;fontSize=12;fontFamily=Iosevka;" parent="1" vertex="1">
          <mxGeometry x="-60" y="300" width="120" height="20" as="geometry" />
        </mxCell>
        <mxCell id="fBMT8fSlZUNq6wW_new5-44" style="edgeStyle=none;curved=1;rounded=0;orthogonalLoop=1;jettySize=auto;html=1;fontSize=12;startSize=8;endSize=4;fontFamily=Iosevka;endArrow=block;endFill=1;" parent="1" source="fBMT8fSlZUNq6wW_new5-41" target="fBMT8fSlZUNq6wW_new5-43" edge="1">
          <mxGeometry relative="1" as="geometry" />
        </mxCell>
        <mxCell id="fBMT8fSlZUNq6wW_new5-46" value="Yes" style="edgeLabel;html=1;align=center;verticalAlign=middle;resizable=0;points=[];fontSize=14;fontFamily=Iosevka;" parent="fBMT8fSlZUNq6wW_new5-44" vertex="1" connectable="0">
          <mxGeometry x="-0.2533" y="-1" relative="1" as="geometry">
            <mxPoint x="1" y="-2" as="offset" />
          </mxGeometry>
        </mxCell>
        <mxCell id="fBMT8fSlZUNq6wW_new5-56" style="edgeStyle=none;curved=1;rounded=0;orthogonalLoop=1;jettySize=auto;html=1;fontSize=12;startSize=8;endSize=4;fontFamily=Iosevka;endArrow=block;endFill=1;" parent="1" source="fBMT8fSlZUNq6wW_new5-41" target="fBMT8fSlZUNq6wW_new5-42" edge="1">
          <mxGeometry relative="1" as="geometry" />
        </mxCell>
        <mxCell id="fBMT8fSlZUNq6wW_new5-78" value="No" style="edgeLabel;html=1;align=center;verticalAlign=middle;resizable=0;points=[];fontSize=14;fontFamily=Iosevka;" parent="fBMT8fSlZUNq6wW_new5-56" vertex="1" connectable="0">
          <mxGeometry x="-0.6278" y="1" relative="1" as="geometry">
            <mxPoint x="8" y="1" as="offset" />
          </mxGeometry>
        </mxCell>
        <mxCell id="fBMT8fSlZUNq6wW_new5-41" value="Char &lt;b&gt;is&lt;/b&gt;&lt;br&gt;&quot;\n&quot;?" style="rhombus;whiteSpace=wrap;html=1;fontFamily=Iosevka;fontSize=12;strokeWidth=1;rounded=1;" parent="1" vertex="1">
          <mxGeometry x="-60" y="340" width="120" height="60" as="geometry" />
        </mxCell>
        <mxCell id="fBMT8fSlZUNq6wW_new5-59" style="edgeStyle=none;curved=1;rounded=0;orthogonalLoop=1;jettySize=auto;html=1;fontSize=12;startSize=8;endSize=4;fontFamily=Iosevka;endArrow=block;endFill=1;" parent="1" source="fBMT8fSlZUNq6wW_new5-42" target="fBMT8fSlZUNq6wW_new5-58" edge="1">
          <mxGeometry relative="1" as="geometry" />
        </mxCell>
        <mxCell id="fBMT8fSlZUNq6wW_new5-60" value="Yes" style="edgeLabel;html=1;align=center;verticalAlign=middle;resizable=0;points=[];fontSize=16;fontFamily=Iosevka;" parent="fBMT8fSlZUNq6wW_new5-59" vertex="1" connectable="0">
          <mxGeometry x="-0.2935" relative="1" as="geometry">
            <mxPoint y="1" as="offset" />
          </mxGeometry>
        </mxCell>
        <mxCell id="fBMT8fSlZUNq6wW_new5-72" style="edgeStyle=orthogonalEdgeStyle;rounded=1;orthogonalLoop=1;jettySize=auto;html=1;fontSize=12;startSize=8;endSize=4;exitX=1;exitY=0.5;exitDx=0;exitDy=0;fontFamily=Iosevka;endArrow=block;endFill=1;" parent="1" source="fBMT8fSlZUNq6wW_new5-42" edge="1">
          <mxGeometry relative="1" as="geometry">
            <mxPoint y="100" as="targetPoint" />
            <Array as="points">
              <mxPoint x="260" y="370" />
              <mxPoint x="260" y="85" />
              <mxPoint y="85" />
            </Array>
          </mxGeometry>
        </mxCell>
        <mxCell id="fBMT8fSlZUNq6wW_new5-75" value="No" style="edgeLabel;html=1;align=center;verticalAlign=middle;resizable=0;points=[];fontSize=14;fontFamily=Iosevka;" parent="fBMT8fSlZUNq6wW_new5-72" vertex="1" connectable="0">
          <mxGeometry x="-0.8708" relative="1" as="geometry">
            <mxPoint x="-19" as="offset" />
          </mxGeometry>
        </mxCell>
        <mxCell id="fBMT8fSlZUNq6wW_new5-42" value="Char &lt;b&gt;not&lt;/b&gt;&lt;br&gt;&quot;\r&quot;?" style="rhombus;whiteSpace=wrap;html=1;fontFamily=Iosevka;fontSize=12;strokeWidth=1;rounded=1;" parent="1" vertex="1">
          <mxGeometry x="100" y="340" width="120" height="60" as="geometry" />
        </mxCell>
        <mxCell id="fBMT8fSlZUNq6wW_new5-48" style="edgeStyle=none;curved=1;rounded=0;orthogonalLoop=1;jettySize=auto;html=1;fontSize=12;startSize=8;endSize=4;fontFamily=Iosevka;endArrow=block;endFill=1;" parent="1" source="fBMT8fSlZUNq6wW_new5-43" target="fBMT8fSlZUNq6wW_new5-47" edge="1">
          <mxGeometry relative="1" as="geometry" />
        </mxCell>
        <mxCell id="fBMT8fSlZUNq6wW_new5-49" value="Yes" style="edgeLabel;html=1;align=center;verticalAlign=middle;resizable=0;points=[];fontSize=14;fontFamily=Iosevka;" parent="fBMT8fSlZUNq6wW_new5-48" vertex="1" connectable="0">
          <mxGeometry x="-0.5969" relative="1" as="geometry">
            <mxPoint y="12" as="offset" />
          </mxGeometry>
        </mxCell>
        <mxCell id="fBMT8fSlZUNq6wW_new5-77" style="edgeStyle=none;curved=1;rounded=0;orthogonalLoop=1;jettySize=auto;html=1;fontSize=12;startSize=8;endSize=4;fontFamily=Iosevka;endArrow=block;endFill=1;" parent="1" source="fBMT8fSlZUNq6wW_new5-43" target="fBMT8fSlZUNq6wW_new5-76" edge="1">
          <mxGeometry relative="1" as="geometry" />
        </mxCell>
        <mxCell id="fBMT8fSlZUNq6wW_new5-79" value="No" style="edgeLabel;html=1;align=center;verticalAlign=middle;resizable=0;points=[];fontSize=14;fontFamily=Iosevka;" parent="fBMT8fSlZUNq6wW_new5-77" vertex="1" connectable="0">
          <mxGeometry x="-0.5167" relative="1" as="geometry">
            <mxPoint x="6" as="offset" />
          </mxGeometry>
        </mxCell>
        <mxCell id="fBMT8fSlZUNq6wW_new5-43" value="currentLine&lt;br&gt;is empty?" style="rhombus;whiteSpace=wrap;html=1;fontFamily=Iosevka;fontSize=12;strokeWidth=1;rounded=1;" parent="1" vertex="1">
          <mxGeometry x="-60" y="460" width="120" height="60" as="geometry" />
        </mxCell>
        <mxCell id="fBMT8fSlZUNq6wW_new5-89" style="edgeStyle=none;curved=1;rounded=0;orthogonalLoop=1;jettySize=auto;html=1;fontSize=12;startSize=8;endSize=4;fontFamily=Iosevka;endArrow=block;endFill=1;" parent="1" source="fBMT8fSlZUNq6wW_new5-47" target="fBMT8fSlZUNq6wW_new5-53" edge="1">
          <mxGeometry relative="1" as="geometry" />
        </mxCell>
        <mxCell id="fBMT8fSlZUNq6wW_new5-47" value="Serve webpage" style="rounded=1;whiteSpace=wrap;html=1;fontSize=12;fontFamily=Iosevka;" parent="1" vertex="1">
          <mxGeometry x="-60" y="560" width="120" height="20" as="geometry" />
        </mxCell>
        <mxCell id="fBMT8fSlZUNq6wW_new5-67" style="edgeStyle=orthogonalEdgeStyle;rounded=1;orthogonalLoop=1;jettySize=auto;html=1;entryX=0.5;entryY=0;entryDx=0;entryDy=0;fontSize=12;startSize=8;endSize=4;exitX=0;exitY=0.5;exitDx=0;exitDy=0;fontFamily=Iosevka;endArrow=block;endFill=1;" parent="1" source="fBMT8fSlZUNq6wW_new5-53" target="fBMT8fSlZUNq6wW_new5-26" edge="1">
          <mxGeometry relative="1" as="geometry">
            <Array as="points">
              <mxPoint x="-110" y="610" />
              <mxPoint x="-110" y="-20" />
              <mxPoint y="-20" />
            </Array>
          </mxGeometry>
        </mxCell>
        <mxCell id="fBMT8fSlZUNq6wW_new5-53" value="Close connection" style="rounded=1;whiteSpace=wrap;html=1;fontSize=12;fontFamily=Iosevka;" parent="1" vertex="1">
          <mxGeometry x="-60" y="600" width="120" height="20" as="geometry" />
        </mxCell>
        <mxCell id="fBMT8fSlZUNq6wW_new5-58" value="Add &lt;b&gt;c&lt;/b&gt;&amp;nbsp;to&lt;br&gt;&lt;b&gt;currentLine&lt;/b&gt;" style="rounded=1;whiteSpace=wrap;html=1;fontSize=12;fontFamily=Iosevka;" parent="1" vertex="1">
          <mxGeometry x="100" y="435" width="120" height="30" as="geometry" />
        </mxCell>
        <mxCell id="fBMT8fSlZUNq6wW_new5-76" value="Clear &lt;b&gt;currentLine&lt;/b&gt;" style="rounded=1;whiteSpace=wrap;html=1;fontSize=12;fontFamily=Iosevka;" parent="1" vertex="1">
          <mxGeometry x="100" y="480" width="120" height="20" as="geometry" />
        </mxCell>
        <mxCell id="fBMT8fSlZUNq6wW_new5-91" value="" style="group;fontStyle=1;fontFamily=Iosevka;" parent="1" vertex="1" connectable="0">
          <mxGeometry x="589.97" y="60" width="120" height="40" as="geometry" />
        </mxCell>
        <mxCell id="fBMT8fSlZUNq6wW_new5-92" value="I2C Receive&lt;br style=&quot;font-size: 12px;&quot;&gt;Subroutine" style="rounded=1;whiteSpace=wrap;html=1;fontSize=12;fontFamily=Iosevka;fontStyle=1" parent="fBMT8fSlZUNq6wW_new5-91" vertex="1">
          <mxGeometry width="120" height="40" as="geometry" />
        </mxCell>
        <mxCell id="fBMT8fSlZUNq6wW_new5-93" value="" style="endArrow=none;html=1;rounded=0;fontSize=12;startSize=8;endSize=8;curved=1;fontStyle=1;fontFamily=Iosevka;" parent="fBMT8fSlZUNq6wW_new5-91" edge="1">
          <mxGeometry width="50" height="50" relative="1" as="geometry">
            <mxPoint x="10" y="40" as="sourcePoint" />
            <mxPoint x="10" as="targetPoint" />
          </mxGeometry>
        </mxCell>
        <mxCell id="fBMT8fSlZUNq6wW_new5-94" value="" style="endArrow=none;html=1;rounded=0;fontSize=12;startSize=8;endSize=8;curved=1;fontStyle=1;fontFamily=Iosevka;" parent="fBMT8fSlZUNq6wW_new5-91" edge="1">
          <mxGeometry width="50" height="50" relative="1" as="geometry">
            <mxPoint x="110" y="40" as="sourcePoint" />
            <mxPoint x="110" as="targetPoint" />
          </mxGeometry>
        </mxCell>
        <mxCell id="fBMT8fSlZUNq6wW_new5-95" value="" style="group;fontStyle=1;fontFamily=Iosevka;" parent="1" vertex="1" connectable="0">
          <mxGeometry x="589.97" y="370" width="120" height="40" as="geometry" />
        </mxCell>
        <mxCell id="fBMT8fSlZUNq6wW_new5-96" value="Return" style="rounded=1;whiteSpace=wrap;html=1;fontSize=12;fontFamily=Iosevka;fontStyle=1" parent="fBMT8fSlZUNq6wW_new5-95" vertex="1">
          <mxGeometry width="120" height="40" as="geometry" />
        </mxCell>
        <mxCell id="fBMT8fSlZUNq6wW_new5-97" value="" style="endArrow=none;html=1;rounded=0;fontSize=12;startSize=8;endSize=8;curved=1;fontStyle=1;fontFamily=Iosevka;" parent="fBMT8fSlZUNq6wW_new5-95" edge="1">
          <mxGeometry width="50" height="50" relative="1" as="geometry">
            <mxPoint x="10" y="40" as="sourcePoint" />
            <mxPoint x="10" as="targetPoint" />
          </mxGeometry>
        </mxCell>
        <mxCell id="fBMT8fSlZUNq6wW_new5-98" value="" style="endArrow=none;html=1;rounded=0;fontSize=12;startSize=8;endSize=8;curved=1;fontStyle=1;fontFamily=Iosevka;" parent="fBMT8fSlZUNq6wW_new5-95" edge="1">
          <mxGeometry width="50" height="50" relative="1" as="geometry">
            <mxPoint x="110" y="40" as="sourcePoint" />
            <mxPoint x="110" as="targetPoint" />
          </mxGeometry>
        </mxCell>
        <mxCell id="fBMT8fSlZUNq6wW_new5-100" value="" style="group" parent="1" vertex="1" connectable="0">
          <mxGeometry x="330" y="180" width="160" height="200" as="geometry" />
        </mxCell>
        <mxCell id="fBMT8fSlZUNq6wW_new5-24" value="" style="rounded=0;whiteSpace=wrap;html=1;fontSize=16;fillColor=none;dashed=1;container=0;" parent="fBMT8fSlZUNq6wW_new5-100" vertex="1">
          <mxGeometry width="160" height="200" as="geometry" />
        </mxCell>
        <mxCell id="fBMT8fSlZUNq6wW_new5-18" value="" style="endArrow=none;html=1;rounded=0;fontSize=12;startSize=8;endSize=8;curved=1;" parent="fBMT8fSlZUNq6wW_new5-100" edge="1">
          <mxGeometry width="50" height="50" relative="1" as="geometry">
            <mxPoint x="20" y="40" as="sourcePoint" />
            <mxPoint x="140" y="40" as="targetPoint" />
          </mxGeometry>
        </mxCell>
        <mxCell id="fBMT8fSlZUNq6wW_new5-19" value="" style="endArrow=classic;html=1;rounded=0;fontSize=12;startSize=8;endSize=4;curved=1;" parent="fBMT8fSlZUNq6wW_new5-100" target="fBMT8fSlZUNq6wW_new5-14" edge="1">
          <mxGeometry width="50" height="50" relative="1" as="geometry">
            <mxPoint x="80" y="40" as="sourcePoint" />
            <mxPoint x="315" y="70" as="targetPoint" />
          </mxGeometry>
        </mxCell>
        <mxCell id="fBMT8fSlZUNq6wW_new5-20" value="&lt;font face=&quot;Iosevka&quot; style=&quot;font-size: 12px;&quot;&gt;I2C Tranmission ISR&lt;/font&gt;" style="text;html=1;align=center;verticalAlign=middle;resizable=0;points=[];autosize=1;strokeColor=none;fillColor=none;fontSize=12;fontStyle=1;container=0;" parent="fBMT8fSlZUNq6wW_new5-100" vertex="1">
          <mxGeometry x="12.5" y="15" width="135" height="30" as="geometry" />
        </mxCell>
        <mxCell id="fBMT8fSlZUNq6wW_new5-21" value="" style="endArrow=none;html=1;rounded=0;fontSize=12;startSize=8;endSize=8;curved=1;" parent="fBMT8fSlZUNq6wW_new5-100" edge="1">
          <mxGeometry width="50" height="50" relative="1" as="geometry">
            <mxPoint x="20" y="160" as="sourcePoint" />
            <mxPoint x="140" y="160" as="targetPoint" />
          </mxGeometry>
        </mxCell>
        <mxCell id="fBMT8fSlZUNq6wW_new5-22" value="&lt;font face=&quot;Iosevka&quot; style=&quot;font-size: 12px;&quot;&gt;End Interrupt&lt;/font&gt;" style="text;html=1;align=center;verticalAlign=middle;resizable=0;points=[];autosize=1;strokeColor=none;fillColor=none;fontSize=12;fontStyle=1;container=0;" parent="fBMT8fSlZUNq6wW_new5-100" vertex="1">
          <mxGeometry x="30" y="155" width="100" height="30" as="geometry" />
        </mxCell>
        <mxCell id="fBMT8fSlZUNq6wW_new5-23" style="edgeStyle=none;curved=1;rounded=0;orthogonalLoop=1;jettySize=auto;html=1;fontSize=12;startSize=8;endSize=4;" parent="fBMT8fSlZUNq6wW_new5-100" source="fBMT8fSlZUNq6wW_new5-14" edge="1">
          <mxGeometry relative="1" as="geometry">
            <mxPoint x="80" y="160" as="targetPoint" />
          </mxGeometry>
        </mxCell>
        <mxCell id="fBMT8fSlZUNq6wW_new5-14" value="I2C Receive&lt;br style=&quot;font-size: 12px;&quot;&gt;Subroutine" style="rounded=1;whiteSpace=wrap;html=1;fontSize=12;fontFamily=Iosevka;fontStyle=1;container=0;" parent="fBMT8fSlZUNq6wW_new5-100" vertex="1">
          <mxGeometry x="20" y="80" width="120" height="40" as="geometry" />
        </mxCell>
        <mxCell id="fBMT8fSlZUNq6wW_new5-15" value="" style="endArrow=none;html=1;rounded=0;fontSize=12;startSize=8;endSize=8;curved=1;" parent="fBMT8fSlZUNq6wW_new5-100" edge="1">
          <mxGeometry width="50" height="50" relative="1" as="geometry">
            <mxPoint x="30" y="120" as="sourcePoint" />
            <mxPoint x="30" y="80" as="targetPoint" />
          </mxGeometry>
        </mxCell>
        <mxCell id="fBMT8fSlZUNq6wW_new5-16" value="" style="endArrow=none;html=1;rounded=0;fontSize=12;startSize=8;endSize=8;curved=1;" parent="fBMT8fSlZUNq6wW_new5-100" edge="1">
          <mxGeometry width="50" height="50" relative="1" as="geometry">
            <mxPoint x="130" y="120" as="sourcePoint" />
            <mxPoint x="130" y="80" as="targetPoint" />
          </mxGeometry>
        </mxCell>
        <mxCell id="fBMT8fSlZUNq6wW_new5-105" style="edgeStyle=none;curved=1;rounded=0;orthogonalLoop=1;jettySize=auto;html=1;fontSize=12;startSize=8;endSize=4;fontFamily=Iosevka;endArrow=block;endFill=1;" parent="1" source="fBMT8fSlZUNq6wW_new5-101" target="fBMT8fSlZUNq6wW_new5-102" edge="1">
          <mxGeometry relative="1" as="geometry" />
        </mxCell>
        <mxCell id="fBMT8fSlZUNq6wW_new5-106" value="Yes" style="edgeLabel;html=1;align=center;verticalAlign=middle;resizable=0;points=[];fontSize=16;fontFamily=Iosevka;" parent="fBMT8fSlZUNq6wW_new5-105" vertex="1" connectable="0">
          <mxGeometry x="-0.3905" relative="1" as="geometry">
            <mxPoint y="4" as="offset" />
          </mxGeometry>
        </mxCell>
        <mxCell id="fBMT8fSlZUNq6wW_new5-136" style="edgeStyle=none;curved=1;rounded=0;orthogonalLoop=1;jettySize=auto;html=1;fontSize=12;startSize=8;endSize=4;fontFamily=Iosevka;endArrow=block;endFill=1;" parent="1" source="fBMT8fSlZUNq6wW_new5-101" target="fBMT8fSlZUNq6wW_new5-104" edge="1">
          <mxGeometry relative="1" as="geometry" />
        </mxCell>
        <mxCell id="fBMT8fSlZUNq6wW_new5-138" value="No" style="edgeLabel;html=1;align=center;verticalAlign=middle;resizable=0;points=[];fontSize=16;fontFamily=Iosevka;" parent="fBMT8fSlZUNq6wW_new5-136" vertex="1" connectable="0">
          <mxGeometry x="-0.5262" y="2" relative="1" as="geometry">
            <mxPoint x="8" y="2" as="offset" />
          </mxGeometry>
        </mxCell>
        <mxCell id="fBMT8fSlZUNq6wW_new5-101" value="Bytes left?" style="rhombus;whiteSpace=wrap;html=1;fontFamily=Iosevka;fontSize=12;strokeWidth=1;rounded=1;" parent="1" vertex="1">
          <mxGeometry x="589.97" y="140" width="120" height="60" as="geometry" />
        </mxCell>
        <mxCell id="fBMT8fSlZUNq6wW_new5-107" style="edgeStyle=none;curved=1;rounded=0;orthogonalLoop=1;jettySize=auto;html=1;fontSize=12;startSize=8;endSize=4;fontFamily=Iosevka;endArrow=block;endFill=1;" parent="1" source="fBMT8fSlZUNq6wW_new5-102" target="fBMT8fSlZUNq6wW_new5-103" edge="1">
          <mxGeometry relative="1" as="geometry" />
        </mxCell>
        <mxCell id="fBMT8fSlZUNq6wW_new5-102" value="Read byte" style="rounded=1;whiteSpace=wrap;html=1;fontSize=12;fontFamily=Iosevka;" parent="1" vertex="1">
          <mxGeometry x="589.97" y="240" width="120" height="20" as="geometry" />
        </mxCell>
        <mxCell id="fBMT8fSlZUNq6wW_new5-108" style="edgeStyle=orthogonalEdgeStyle;rounded=1;orthogonalLoop=1;jettySize=auto;html=1;fontSize=12;startSize=8;endSize=4;entryX=0.5;entryY=0;entryDx=0;entryDy=0;fontFamily=Iosevka;endArrow=block;endFill=1;" parent="1" source="fBMT8fSlZUNq6wW_new5-103" target="fBMT8fSlZUNq6wW_new5-101" edge="1">
          <mxGeometry relative="1" as="geometry">
            <mxPoint x="764.97" y="280" as="targetPoint" />
            <Array as="points">
              <mxPoint x="560" y="300" />
              <mxPoint x="560" y="120" />
              <mxPoint x="650" y="120" />
            </Array>
          </mxGeometry>
        </mxCell>
        <mxCell id="fBMT8fSlZUNq6wW_new5-103" value="Add to decode&lt;br&gt;string" style="rounded=1;whiteSpace=wrap;html=1;fontSize=12;fontFamily=Iosevka;" parent="1" vertex="1">
          <mxGeometry x="589.97" y="280" width="120" height="40" as="geometry" />
        </mxCell>
        <mxCell id="fBMT8fSlZUNq6wW_new5-113" style="edgeStyle=none;curved=1;rounded=0;orthogonalLoop=1;jettySize=auto;html=1;fontSize=12;startSize=8;endSize=4;fontFamily=Iosevka;endArrow=block;endFill=1;" parent="1" source="fBMT8fSlZUNq6wW_new5-104" target="fBMT8fSlZUNq6wW_new5-111" edge="1">
          <mxGeometry relative="1" as="geometry" />
        </mxCell>
        <mxCell id="fBMT8fSlZUNq6wW_new5-104" value="Char array&lt;br style=&quot;font-size: 12px;&quot;&gt;from string" style="rounded=1;whiteSpace=wrap;html=1;fontSize=12;fontFamily=Iosevka;" parent="1" vertex="1">
          <mxGeometry x="779.97" y="150" width="120" height="40" as="geometry" />
        </mxCell>
        <mxCell id="fBMT8fSlZUNq6wW_new5-114" style="edgeStyle=none;curved=1;rounded=0;orthogonalLoop=1;jettySize=auto;html=1;fontSize=12;startSize=8;endSize=4;fontFamily=Iosevka;endArrow=block;endFill=1;" parent="1" source="fBMT8fSlZUNq6wW_new5-111" target="fBMT8fSlZUNq6wW_new5-112" edge="1">
          <mxGeometry relative="1" as="geometry" />
        </mxCell>
        <mxCell id="fBMT8fSlZUNq6wW_new5-111" value="Split on `&amp;amp;`" style="rounded=1;whiteSpace=wrap;html=1;fontSize=12;fontFamily=Iosevka;" parent="1" vertex="1">
          <mxGeometry x="779.97" y="220" width="120" height="20" as="geometry" />
        </mxCell>
        <mxCell id="fBMT8fSlZUNq6wW_new5-124" style="edgeStyle=none;curved=1;rounded=0;orthogonalLoop=1;jettySize=auto;html=1;fontSize=12;startSize=8;endSize=4;fontFamily=Iosevka;endArrow=block;endFill=1;" parent="1" source="fBMT8fSlZUNq6wW_new5-112" target="fBMT8fSlZUNq6wW_new5-118" edge="1">
          <mxGeometry relative="1" as="geometry" />
        </mxCell>
        <mxCell id="fBMT8fSlZUNq6wW_new5-125" value="Yes" style="edgeLabel;html=1;align=center;verticalAlign=middle;resizable=0;points=[];fontSize=16;fontFamily=Iosevka;" parent="fBMT8fSlZUNq6wW_new5-124" vertex="1" connectable="0">
          <mxGeometry x="-0.3333" y="1" relative="1" as="geometry">
            <mxPoint x="-1" y="2" as="offset" />
          </mxGeometry>
        </mxCell>
        <mxCell id="fBMT8fSlZUNq6wW_new5-139" style="edgeStyle=orthogonalEdgeStyle;rounded=1;orthogonalLoop=1;jettySize=auto;html=1;entryX=1;entryY=0.5;entryDx=0;entryDy=0;fontSize=12;startSize=8;endSize=4;fontFamily=Iosevka;endArrow=block;endFill=1;" parent="1" source="fBMT8fSlZUNq6wW_new5-112" target="fBMT8fSlZUNq6wW_new5-96" edge="1">
          <mxGeometry relative="1" as="geometry" />
        </mxCell>
        <mxCell id="fBMT8fSlZUNq6wW_new5-140" value="No" style="edgeLabel;html=1;align=center;verticalAlign=middle;resizable=0;points=[];fontSize=16;fontFamily=Iosevka;" parent="fBMT8fSlZUNq6wW_new5-139" vertex="1" connectable="0">
          <mxGeometry x="-0.148" y="1" relative="1" as="geometry">
            <mxPoint y="8" as="offset" />
          </mxGeometry>
        </mxCell>
        <mxCell id="fBMT8fSlZUNq6wW_new5-112" value="&lt;b&gt;key:value&lt;/b&gt;&lt;br&gt;pairs left?" style="rhombus;whiteSpace=wrap;html=1;fontFamily=Iosevka;fontSize=12;strokeWidth=1;rounded=1;" parent="1" vertex="1">
          <mxGeometry x="779.97" y="260" width="120" height="60" as="geometry" />
        </mxCell>
        <mxCell id="fBMT8fSlZUNq6wW_new5-130" style="edgeStyle=none;curved=1;rounded=0;orthogonalLoop=1;jettySize=auto;html=1;fontSize=12;startSize=8;endSize=4;fontFamily=Iosevka;endArrow=block;endFill=1;" parent="1" source="fBMT8fSlZUNq6wW_new5-115" target="fBMT8fSlZUNq6wW_new5-120" edge="1">
          <mxGeometry relative="1" as="geometry" />
        </mxCell>
        <mxCell id="fBMT8fSlZUNq6wW_new5-115" value="Split on `:`" style="rounded=1;whiteSpace=wrap;html=1;fontSize=12;fontFamily=Iosevka;" parent="1" vertex="1">
          <mxGeometry x="779.97" y="460" width="120" height="20" as="geometry" />
        </mxCell>
        <mxCell id="fBMT8fSlZUNq6wW_new5-122" style="edgeStyle=orthogonalEdgeStyle;rounded=1;orthogonalLoop=1;jettySize=auto;html=1;entryX=0.5;entryY=0;entryDx=0;entryDy=0;fontSize=12;startSize=8;endSize=4;fontFamily=Iosevka;endArrow=block;endFill=1;" parent="1" source="fBMT8fSlZUNq6wW_new5-118" target="fBMT8fSlZUNq6wW_new5-111" edge="1">
          <mxGeometry relative="1" as="geometry">
            <Array as="points">
              <mxPoint x="940" y="390" />
              <mxPoint x="940" y="205" />
              <mxPoint x="840" y="205" />
            </Array>
          </mxGeometry>
        </mxCell>
        <mxCell id="fBMT8fSlZUNq6wW_new5-123" value="No" style="edgeLabel;html=1;align=center;verticalAlign=middle;resizable=0;points=[];fontSize=16;fontFamily=Iosevka;" parent="fBMT8fSlZUNq6wW_new5-122" vertex="1" connectable="0">
          <mxGeometry x="-0.7583" y="1" relative="1" as="geometry">
            <mxPoint x="-21" y="1" as="offset" />
          </mxGeometry>
        </mxCell>
        <mxCell id="fBMT8fSlZUNq6wW_new5-126" style="edgeStyle=none;curved=1;rounded=0;orthogonalLoop=1;jettySize=auto;html=1;fontSize=12;startSize=8;endSize=4;fontFamily=Iosevka;endArrow=block;endFill=1;" parent="1" source="fBMT8fSlZUNq6wW_new5-118" target="fBMT8fSlZUNq6wW_new5-115" edge="1">
          <mxGeometry relative="1" as="geometry" />
        </mxCell>
        <mxCell id="fBMT8fSlZUNq6wW_new5-127" value="Yes" style="edgeLabel;html=1;align=center;verticalAlign=middle;resizable=0;points=[];fontSize=16;fontFamily=Iosevka;" parent="fBMT8fSlZUNq6wW_new5-126" vertex="1" connectable="0">
          <mxGeometry x="-0.1783" y="1" relative="1" as="geometry">
            <mxPoint as="offset" />
          </mxGeometry>
        </mxCell>
        <mxCell id="fBMT8fSlZUNq6wW_new5-118" value="Split possible?" style="rhombus;whiteSpace=wrap;html=1;fontFamily=Iosevka;fontSize=12;strokeWidth=1;rounded=1;" parent="1" vertex="1">
          <mxGeometry x="779.97" y="360" width="120" height="60" as="geometry" />
        </mxCell>
        <mxCell id="fBMT8fSlZUNq6wW_new5-129" style="edgeStyle=orthogonalEdgeStyle;rounded=1;orthogonalLoop=1;jettySize=auto;html=1;entryX=0.5;entryY=0;entryDx=0;entryDy=0;fontSize=12;startSize=8;endSize=4;fontFamily=Iosevka;endArrow=block;endFill=1;" parent="1" source="fBMT8fSlZUNq6wW_new5-120" target="fBMT8fSlZUNq6wW_new5-111" edge="1">
          <mxGeometry relative="1" as="geometry">
            <Array as="points">
              <mxPoint x="940" y="520" />
              <mxPoint x="940" y="205" />
              <mxPoint x="840" y="205" />
            </Array>
          </mxGeometry>
        </mxCell>
        <mxCell id="fBMT8fSlZUNq6wW_new5-120" value="Assign value&lt;br&gt;to struct field" style="rounded=1;whiteSpace=wrap;html=1;fontSize=12;fontFamily=Iosevka;" parent="1" vertex="1">
          <mxGeometry x="779.97" y="500" width="120" height="40" as="geometry" />
        </mxCell>
        <mxCell id="fBMT8fSlZUNq6wW_new5-128" style="edgeStyle=none;curved=1;rounded=0;orthogonalLoop=1;jettySize=auto;html=1;fontSize=12;startSize=8;endSize=4;fontFamily=Iosevka;endArrow=block;endFill=1;" parent="1" source="fBMT8fSlZUNq6wW_new5-92" target="fBMT8fSlZUNq6wW_new5-101" edge="1">
          <mxGeometry relative="1" as="geometry" />
        </mxCell>
      </root>
    </mxGraphModel>
  </diagram>
</mxfile>
